HIERARCHY
ROOT Hips
{
  OFFSET 5.84602e-005 68.8428 3.50346
  CHANNELS 6 Xposition Yposition Zposition Zrotation Xrotation Yrotation
  JOINT Spine
  {
    OFFSET 0 8.597 -4.6522
    CHANNELS 3 Zrotation Xrotation Yrotation
    JOINT Spine1
    {
      OFFSET 0 7.8454 0.4098
      CHANNELS 3 Zrotation Xrotation Yrotation
      JOINT Spine2
      {
        OFFSET 0 9.7078 -2.1609
        CHANNELS 3 Zrotation Xrotation Yrotation
        JOINT Neck
        {
          OFFSET 0 21.8761 -0.4549
          CHANNELS 3 Zrotation Xrotation Yrotation
          JOINT Head
          {
            OFFSET 0 12.3537 3.3602
            CHANNELS 3 Zrotation Xrotation Yrotation
            End Site
            {
              OFFSET 0.0001 18.9506 0.5657
            }
          }
        }
        JOINT LeftShoulder
        {
          OFFSET 2.2086 21.1115 7.2329
          CHANNELS 3 Zrotation Xrotation Yrotation
          JOINT LeftArm
          {
            OFFSET 13.1193 3.0282 -4.8998
            CHANNELS 3 Zrotation Xrotation Yrotation
            JOINT LeftForeArm
            {
              OFFSET 27.4081 -0.0973053 -0.2375
              CHANNELS 3 Zrotation Xrotation Yrotation
              JOINT LeftHand
              {
                OFFSET 22.8641 0.0662994 -0.1369
                CHANNELS 3 Zrotation Xrotation Yrotation
                JOINT LeftHandIndex1
                {
                  OFFSET 8.8614 0.775009 2.4612
                  CHANNELS 3 Zrotation Xrotation Yrotation
                  JOINT LeftHandIndex2
                  {
                    OFFSET 3.3146 -0.808304 0.5841
                    CHANNELS 3 Zrotation Xrotation Yrotation
                    JOINT LeftHandIndex3
                    {
                      OFFSET 2.2628 -0.552002 0.3989
                      CHANNELS 3 Zrotation Xrotation Yrotation
                      End Site
                      {
                        OFFSET 1.6102 -0.4807 0.2612
                      }
                    }
                  }
                }
                JOINT LeftHandMiddle1
                {
                  OFFSET 8.9937 0.895004 0.2143
                  CHANNELS 3 Zrotation Xrotation Yrotation
                  JOINT LeftHandMiddle2
                  {
                    OFFSET 4.0984 0.0113983 -0.0242
                    CHANNELS 3 Zrotation Xrotation Yrotation
                    JOINT LeftHandMiddle3
                    {
                      OFFSET 2.2716 0.00689697 -0.0138001
                      CHANNELS 3 Zrotation Xrotation Yrotation
                      End Site
                      {
                        OFFSET 2.0404 -0.1441 0.0027
                      }
                    }
                  }
                }
                JOINT LeftHandRing1
                {
                  OFFSET 8.5234 0.597198 -2.0164
                  CHANNELS 3 Zrotation Xrotation Yrotation
                  JOINT LeftHandRing2
                  {
                    OFFSET 3.7188 -0.188293 -0.2328
                    CHANNELS 3 Zrotation Xrotation Yrotation
                    JOINT LeftHandRing3
                    {
                      OFFSET 2.1191 -0.106598 -0.1332
                      CHANNELS 3 Zrotation Xrotation Yrotation
                      End Site
                      {
                        OFFSET 1.8737 -0.2304 -0.0886
                      }
                    }
                  }
                }
                JOINT LeftHandPinky1
                {
                  OFFSET 7.9094 -0.601089 -3.4825
                  CHANNELS 3 Zrotation Xrotation Yrotation
                  JOINT LeftHandPinky2
                  {
                    OFFSET 2.2874 -0.477005 -0.6314
                    CHANNELS 3 Zrotation Xrotation Yrotation
                    JOINT LeftHandPinky3
                    {
                      OFFSET 1.6774 -0.349396 -0.4633
                      CHANNELS 3 Zrotation Xrotation Yrotation
                      End Site
                      {
                        OFFSET 1.4888 -0.4091 -0.3416
                      }
                    }
                  }
                }
                JOINT LeftHandThumb1
                {
                  OFFSET 1.833 -1.3875 1.3896
                  CHANNELS 3 Zrotation Xrotation Yrotation
                  JOINT LeftHandThumb2
                  {
                    OFFSET 3.4129 -1.121 2.5732
                    CHANNELS 3 Zrotation Xrotation Yrotation
                    JOINT LeftHandThumb3
                    {
                      OFFSET 2.2474 -0.804199 1.6192
                      CHANNELS 3 Zrotation Xrotation Yrotation
                      End Site
                      {
                        OFFSET 1.6527 -0.5689 1.1317
                      }
                    }
                  }
                }
              }
            }
          }
        }
        JOINT RightShoulder
        {
          OFFSET -2.2086 21.1115 7.2329
          CHANNELS 3 Zrotation Xrotation Yrotation
          JOINT RightArm
          {
            OFFSET -13.1216 3.0287 -4.9007
            CHANNELS 3 Zrotation Xrotation Yrotation
            JOINT RightForeArm
            {
              OFFSET -27.4081 -0.0973053 -0.2375
              CHANNELS 3 Zrotation Xrotation Yrotation
              JOINT RightHand
              {
                OFFSET -22.8641 0.0664063 -0.1369
                CHANNELS 3 Zrotation Xrotation Yrotation
                JOINT RightHandIndex1
                {
                  OFFSET -8.8614 0.774994 2.4612
                  CHANNELS 3 Zrotation Xrotation Yrotation
                  JOINT RightHandIndex2
                  {
                    OFFSET -3.3146 -0.808304 0.5841
                    CHANNELS 3 Zrotation Xrotation Yrotation
                    JOINT RightHandIndex3
                    {
                      OFFSET -2.2628 -0.552002 0.3989
                      CHANNELS 3 Zrotation Xrotation Yrotation
                      End Site
                      {
                        OFFSET -1.6102 -0.4807 0.2612
                      }
                    }
                  }
                }
                JOINT RightHandMiddle1
                {
                  OFFSET -8.9937 0.894989 0.2143
                  CHANNELS 3 Zrotation Xrotation Yrotation
                  JOINT RightHandMiddle2
                  {
                    OFFSET -4.0984 0.0113983 -0.0242
                    CHANNELS 3 Zrotation Xrotation Yrotation
                    JOINT RightHandMiddle3
                    {
                      OFFSET -2.2716 0.00691223 -0.0138001
                      CHANNELS 3 Zrotation Xrotation Yrotation
                      End Site
                      {
                        OFFSET -2.0404 -0.1441 0.0027
                      }
                    }
                  }
                }
                JOINT RightHandRing1
                {
                  OFFSET -8.5234 0.597198 -2.0164
                  CHANNELS 3 Zrotation Xrotation Yrotation
                  JOINT RightHandRing2
                  {
                    OFFSET -3.7188 -0.188309 -0.2328
                    CHANNELS 3 Zrotation Xrotation Yrotation
                    JOINT RightHandRing3
                    {
                      OFFSET -2.1191 -0.106598 -0.1332
                      CHANNELS 3 Zrotation Xrotation Yrotation
                      End Site
                      {
                        OFFSET -1.8737 -0.2304 -0.0886
                      }
                    }
                  }
                }
                JOINT RightHandPinky1
                {
                  OFFSET -7.9094 -0.601105 -3.4825
                  CHANNELS 3 Zrotation Xrotation Yrotation
                  JOINT RightHandPinky2
                  {
                    OFFSET -2.2874 -0.477005 -0.6314
                    CHANNELS 3 Zrotation Xrotation Yrotation
                    JOINT RightHandPinky3
                    {
                      OFFSET -1.6774 -0.349396 -0.4633
                      CHANNELS 3 Zrotation Xrotation Yrotation
                      End Site
                      {
                        OFFSET -1.4888 -0.4091 -0.3416
                      }
                    }
                  }
                }
                JOINT RightHandThumb1
                {
                  OFFSET -1.833 -1.38751 1.3896
                  CHANNELS 3 Zrotation Xrotation Yrotation
                  JOINT RightHandThumb2
                  {
                    OFFSET -3.41299 -1.12099 2.5732
                    CHANNELS 3 Zrotation Xrotation Yrotation
                    JOINT RightHandThumb3
                    {
                      OFFSET -2.24741 -0.804108 1.6192
                      CHANNELS 3 Zrotation Xrotation Yrotation
                      End Site
                      {
                        OFFSET -1.6527 -0.5689 1.1317
                      }
                    }
                  }
                }
              }
            }
          }
        }
      }
    }
  }
  JOINT RightUpLeg
  {
    OFFSET -9.1966 3.8861 -0.7581
    CHANNELS 3 Zrotation Xrotation Yrotation
    JOINT RightLeg
    {
      OFFSET -0.7359 -41.0265 0
      CHANNELS 3 Zrotation Xrotation Yrotation
      JOINT RightFoot
      {
        OFFSET 0 -40.2855 0
        CHANNELS 3 Zrotation Xrotation Yrotation
        JOINT RightToeBase
        {
          OFFSET 0 -5.6122 11.7359
          CHANNELS 3 Zrotation Xrotation Yrotation
          End Site
          {
            OFFSET 0 0 7.8731
          }
        }
      }
    }
  }
  JOINT LeftUpLeg
  {
    OFFSET 9.1965 3.8864 -0.7581
    CHANNELS 3 Zrotation Xrotation Yrotation
    JOINT LeftLeg
    {
      OFFSET 0.7359 -41.0268 0
      CHANNELS 3 Zrotation Xrotation Yrotation
      JOINT LeftFoot
      {
        OFFSET 0 -40.2855 0
        CHANNELS 3 Zrotation Xrotation Yrotation
        JOINT LeftToeBase
        {
          OFFSET 0 -5.6122 11.7359
          CHANNELS 3 Zrotation Xrotation Yrotation
          End Site
          {
            OFFSET 0 0 7.8731
          }
        }
      }
    }
  }
}
MOTION
Frames:	7
Frame Time:	0.0333333
5.84602e-005 68.8428 3.50346 0 0 -0 0 0 -0 0 0 -0 0 0 -0 0 0 -0 0 0 -0 0 0 -0 0 0 -0 0 0 -0 0 0 -0 0 0 -0 0 0 -0 0 0 -0 0 0 -0 -0.0146107 -8.87603e-005 -2.63497e-007 2.99804e-018 -2.42657e-020 -1.42182e-022 0 0 -0 -0.0187562 -0.001176 5.858e-005 5.06224e-018 3.88251e-019 1.21329e-020 0 0 -0 -0.012269 -0.00324817 0.000675346 -1.74678e-018 3.88251e-019 -0 0 0 -0 0 0 -0 0 0 -0 0 0 -0 0 0 -0 0 0 -0 0 0 -0 0 0 -0 0 0 -0 0 0 -0 0 0 -0 0.0149955 -9.10982e-005 2.64101e-007 -9.69331e-018 1.21329e-020 -4.7394e-023 0 0 -0 0.0189956 -0.00119102 -5.96516e-005 -5.41541e-019 0 2.42657e-020 0 0 -0 0.0122698 -0.00324857 -0.000673756 -2.00796e-019 0 -1.94126e-019 0 0 -0 0 0 -0 0 0 -0 3.39842 1.33031 -0.0637918 -5.65207e-008 0.834868 -0.000436188 -3.39935 -2.16518 -0.0642563 -8.89002e-024 -1.18485e-023 -1.48106e-024 -3.39844 1.35642 0.0640283 -3.18788e-007 0.782166 -0.000588827 3.39931 -2.13858 0.0634662 1.1399e-023 0 -0 
-11.5693 2.76442 2.68377 -120.005 -89.9993 -0.00448476 5.34037 -1.40375 3.35137 10.7575 -2.48714 6.82129 10.7575 -2.48711 6.82132 -10.7798 15.9177 -16.9157 23.6189 -6.97483 34.3673 -21.517 -1.82761 28.4555 -169.614 -26.9683 -119.193 -22.7044 55.3835 -83.9908 -14.3052 4.95138 -8.03132 -1.71166e-006 -2.04237e-006 1.79853e-006 -1.71166e-006 -2.04237e-006 1.79853e-006 -1.71166e-006 -2.04237e-006 1.79853e-006 -1.71166e-006 -2.04237e-006 1.79853e-006 -0.0145472 -9.2128e-005 4.31186e-006 -1.71151e-006 -2.0426e-006 1.79827e-006 -1.71166e-006 -2.04237e-006 1.79853e-006 -0.0187659 -0.00117962 5.24438e-005 -1.71145e-006 -2.04265e-006 1.79821e-006 -1.71166e-006 -2.04237e-006 1.79853e-006 -0.012196 -0.00322685 0.000671917 -1.7115e-006 -2.04252e-006 1.79835e-006 -1.71166e-006 -2.04237e-006 1.79853e-006 -1.71166e-006 -2.04237e-006 1.79853e-006 -1.71166e-006 -2.04237e-006 1.79853e-006 -3.50277 1.39935 30.3988 -5.41114 4.39228 26.5351 37.6098 -28.2411 110.865 6.99683 -6.09317e-007 6.02066e-006 1.54098e-007 1.65992e-007 -1.41013e-007 6.1639e-008 6.63968e-008 -5.64051e-008 1.69507e-007 1.82591e-007 -1.55114e-007 1.54098e-007 1.65992e-007 -1.41013e-007 0.0150108 -9.00894e-005 6.69897e-006 -4.66072e-007 5.18651e-007 -4.63336e-007 1.54098e-007 1.65992e-007 -1.41013e-007 0.0189657 -0.00118937 -6.17409e-005 1.69505e-007 1.82566e-007 -1.55146e-007 1.54098e-007 1.65992e-007 -1.41013e-007 0.0122527 -0.00324663 -0.000677344 1.69502e-007 1.82576e-007 -1.55138e-007 1.54098e-007 1.65992e-007 -1.41013e-007 6.1639e-008 6.63968e-008 -5.64051e-008 1.69507e-007 1.82591e-007 -1.55114e-007 -54.7249 -13.1558 -70.0656 124.458 49.351 -86.1735 20.0676 65.0036 -27.1272 -3.39258e-008 -3.90487e-006 -3.02657e-006 -4.95017 -19.8066 -2.06894 -6.07595 18.3606 9.0759 82.8339 22.3169 -94.4938 5.59948e-007 1.98703e-006 1.71986e-006 
-11.5693 2.76442 2.68377 -120.005 -89.9993 -0.00448476 5.34037 -1.40377 3.35137 10.7575 -2.48715 6.82129 10.7575 -2.48711 6.82132 -10.5188 15.9257 -16.9727 23.6189 -6.97483 34.3672 -21.517 -1.82761 28.4555 -169.614 -26.9683 -119.193 -22.7044 55.3835 -83.9908 -14.3052 4.95138 -8.03132 -2.79168e-006 -2.47774e-006 1.64259e-006 -1.71166e-006 -2.04237e-006 1.79853e-006 -1.71166e-006 -2.04237e-006 1.79853e-006 -2.79168e-006 -2.47774e-006 1.64259e-006 -0.0146377 -9.27155e-005 1.89541e-006 -1.08158e-006 -4.35364e-007 -1.56e-007 -2.79168e-006 -2.47774e-006 1.64259e-006 -0.0187658 -0.00117695 6.40573e-005 -1.71145e-006 -2.04265e-006 1.79821e-006 -2.79168e-006 -2.47774e-006 1.64259e-006 -0.0122058 -0.00323111 0.000673735 -1.7115e-006 -2.04252e-006 1.79836e-006 -2.79168e-006 -2.47774e-006 1.64259e-006 -1.71166e-006 -2.04237e-006 1.79853e-006 -1.71166e-006 -2.04237e-006 1.79853e-006 -3.50277 1.39935 30.3988 -4.51885 5.00126 25.2507 37.413 -27.3687 111.434 5.85879 3.06756e-006 -3.72841e-006 -6.86264e-008 -7.56837e-008 6.30653e-008 2.28755e-008 2.52279e-008 -2.10218e-008 -1.90833e-014 7.95139e-015 3.18055e-015 -6.86264e-008 -7.56837e-008 6.30653e-008 0.0150323 -9.13402e-005 -8.81712e-007 7.1833e-007 -3.15058e-007 3.98875e-007 -6.86264e-008 -7.56837e-008 6.30653e-008 0.0190355 -0.00119472 -6.85311e-005 -7.17922e-007 3.1493e-007 -3.98886e-007 -6.86264e-008 -7.56837e-008 6.30653e-008 0.0122566 -0.00324646 -0.000681727 9.54166e-015 -2.06736e-014 3.18055e-015 -6.86264e-008 -7.56837e-008 6.30653e-008 2.28755e-008 2.52279e-008 -2.10218e-008 -1.90833e-014 7.95139e-015 3.18055e-015 -54.7249 -13.1558 -70.0656 124.458 49.351 -86.1735 20.0676 65.0036 -27.1272 -3.94608e-006 -5.03474e-006 -4.12501e-006 -4.95006 -19.8025 -2.06906 -6.07568 18.3524 9.0734 82.8359 22.3195 -94.4979 2.5757e-006 2.16849e-006 -1.07549e-007 
-11.5693 2.76442 2.68377 -120.005 -89.9993 -0.00448476 5.34037 -1.40377 3.35137 10.7575 -2.48715 6.82129 10.7575 -2.48711 6.82132 -10.2577 15.9333 -17.0298 23.6189 -6.97483 34.3672 -21.517 -1.82761 28.4555 -169.614 -26.9683 -119.193 -22.7044 55.3835 -83.9908 -14.3052 4.95138 -8.03132 -2.79168e-006 -2.47774e-006 1.64259e-006 -1.71166e-006 -2.04237e-006 1.79853e-006 -1.71166e-006 -2.04237e-006 1.79853e-006 -2.79168e-006 -2.47774e-006 1.64259e-006 -0.0146377 -9.27155e-005 1.89541e-006 -1.08158e-006 -4.35364e-007 -1.56e-007 -2.79168e-006 -2.47774e-006 1.64259e-006 -0.0187658 -0.00117695 6.40573e-005 -1.71145e-006 -2.04265e-006 1.79821e-006 -2.79168e-006 -2.47774e-006 1.64259e-006 -0.0122058 -0.00323111 0.000673735 -1.7115e-006 -2.04252e-006 1.79836e-006 -2.79168e-006 -2.47774e-006 1.64259e-006 -1.71166e-006 -2.04237e-006 1.79853e-006 -1.71166e-006 -2.04237e-006 1.79853e-006 -3.50277 1.39935 30.3988 -3.60455 5.59491 23.9448 37.2071 -26.4938 112.004 4.7147 8.63954e-008 -3.04788e-006 1.17679e-006 1.32903e-006 -1.08608e-006 -9.05226e-008 -1.02233e-007 8.35444e-008 1.20697e-006 1.36311e-006 -1.11393e-006 1.17679e-006 1.32903e-006 -1.08608e-006 0.0149687 -9.06974e-005 8.41158e-007 1.20697e-006 1.36297e-006 -1.1141e-006 1.17679e-006 1.32903e-006 -1.08608e-006 0.0190374 -0.00119299 -5.50488e-005 1.20696e-006 1.36293e-006 -1.11416e-006 1.17679e-006 1.32903e-006 -1.08608e-006 0.0122783 -0.00325502 -0.000673982 1.20693e-006 1.363e-006 -1.11411e-006 1.17679e-006 1.32903e-006 -1.08608e-006 -9.05226e-008 -1.02233e-007 8.35444e-008 1.20697e-006 1.36311e-006 -1.11393e-006 -54.7249 -13.1558 -70.0656 124.458 49.351 -86.1735 20.0676 65.0036 -27.1272 -3.94608e-006 -5.03474e-006 -4.12501e-006 -4.95006 -19.8025 -2.06906 -6.07568 18.3524 9.0734 82.8359 22.3195 -94.4979 2.5757e-006 2.16849e-006 -1.07549e-007 
-11.5693 2.76442 2.68377 -120.005 -89.9993 -0.00448476 5.34037 -1.40377 3.35137 10.7575 -2.48715 6.82129 10.7575 -2.48711 6.82132 -9.99653 15.9406 -17.0871 23.6189 -6.97484 34.3673 -21.517 -1.82761 28.4555 -169.614 -26.9683 -119.193 -22.7044 55.3835 -83.9908 -14.3052 4.95138 -8.03132 -2.79168e-006 -2.47774e-006 1.64259e-006 -1.71166e-006 -2.04237e-006 1.79853e-006 -1.71166e-006 -2.04237e-006 1.79853e-006 -2.79168e-006 -2.47774e-006 1.64259e-006 -0.0146377 -9.27155e-005 1.89541e-006 -1.08158e-006 -4.35364e-007 -1.56e-007 -2.79168e-006 -2.47774e-006 1.64259e-006 -0.0187658 -0.00117695 6.40573e-005 -1.71145e-006 -2.04265e-006 1.79821e-006 -2.79168e-006 -2.47774e-006 1.64259e-006 -0.0122058 -0.00323111 0.000673735 -1.7115e-006 -2.04252e-006 1.79836e-006 -2.79168e-006 -2.47774e-006 1.64259e-006 -1.71166e-006 -2.04237e-006 1.79853e-006 -1.71166e-006 -2.04237e-006 1.79853e-006 -3.50277 1.39935 30.3988 -2.66846 6.17207 22.6176 36.9919 -25.6165 112.577 3.56474 -1.11922e-006 -2.27716e-006 -5.96805e-007 -6.90398e-007 5.53194e-007 -5.37125e-007 -6.21358e-007 4.97874e-007 -6.56486e-007 -7.59437e-007 6.08513e-007 -5.96805e-007 -6.90398e-007 5.53194e-007 0.0150376 -9.57676e-005 -6.16976e-006 -6.56487e-007 -7.59357e-007 6.08613e-007 -5.96805e-007 -6.90398e-007 5.53194e-007 0.0189275 -0.00118948 -5.22446e-005 -6.56481e-007 -7.59337e-007 6.08645e-007 -5.96805e-007 -6.90398e-007 5.53194e-007 0.012289 -0.00325274 -0.000676345 -6.56465e-007 -7.59376e-007 6.08613e-007 -5.96805e-007 -6.90398e-007 5.53194e-007 -5.37125e-007 -6.21358e-007 4.97874e-007 -6.56486e-007 -7.59437e-007 6.08513e-007 -54.7249 -13.1558 -70.0656 124.458 49.351 -86.1735 20.0676 65.0036 -27.1272 -3.94608e-006 -5.03474e-006 -4.12501e-006 -4.95006 -19.8025 -2.06906 -6.07568 18.3524 9.0734 82.8359 22.3195 -94.4979 2.5757e-006 2.16849e-006 -1.07549e-007 
-11.5693 2.76442 2.68377 -120.005 -89.9993 -0.00448476 5.34037 -1.40377 3.35137 10.7575 -2.48715 6.82129 10.7575 -2.48711 6.82132 -9.73526 15.9478 -17.1443 23.6189 -6.97483 34.3672 -21.517 -1.82761 28.4555 -169.614 -26.9683 -119.193 -22.7044 55.3835 -83.9908 -14.3052 4.95138 -8.03132 -2.79168e-006 -2.47774e-006 1.64259e-006 -1.71166e-006 -2.04237e-006 1.79853e-006 -1.71166e-006 -2.04237e-006 1.79853e-006 -2.79168e-006 -2.47774e-006 1.64259e-006 -0.0146377 -9.27155e-005 1.89541e-006 -1.08158e-006 -4.35364e-007 -1.56e-007 -2.79168e-006 -2.47774e-006 1.64259e-006 -0.0187658 -0.00117695 6.40573e-005 -1.71145e-006 -2.04265e-006 1.79821e-006 -2.79168e-006 -2.47774e-006 1.64259e-006 -0.0122058 -0.00323111 0.000673735 -1.7115e-006 -2.04252e-006 1.79836e-006 -2.79168e-006 -2.47774e-006 1.64259e-006 -1.71166e-006 -2.04237e-006 1.79853e-006 -1.71166e-006 -2.04237e-006 1.79853e-006 -3.50277 1.39935 30.3988 -1.71082 6.73154 21.2694 36.7676 -24.7371 113.152 2.40909 9.77776e-006 4.20243e-006 5.30981e-007 6.29337e-007 -4.94342e-007 8.2597e-007 9.78968e-007 -7.68977e-007 5.89979e-007 6.99263e-007 -5.49269e-007 5.30981e-007 6.29337e-007 -4.94342e-007 0.0150305 -9.02716e-005 2.25395e-008 5.8998e-007 6.99191e-007 -5.49362e-007 5.30981e-007 6.29337e-007 -4.94342e-007 0.019055 -0.00119612 -6.25958e-005 5.89975e-007 6.99172e-007 -5.49392e-007 5.30981e-007 6.29337e-007 -4.94342e-007 0.0122687 -0.00324504 -0.000677628 5.89961e-007 6.99207e-007 -5.49361e-007 5.30981e-007 6.29337e-007 -4.94342e-007 8.2597e-007 9.78968e-007 -7.68977e-007 5.89979e-007 6.99263e-007 -5.49269e-007 -54.7249 -13.1558 -70.0656 124.458 49.351 -86.1735 20.0676 65.0036 -27.1272 -3.94608e-006 -5.03474e-006 -4.12501e-006 -4.95006 -19.8025 -2.06906 -6.07568 18.3524 9.0734 82.8359 22.3195 -94.4979 2.5757e-006 2.16849e-006 -1.07549e-007 
-11.5693 2.76442 2.68377 -120.005 -89.9993 -0.00448476 5.34037 -1.40377 3.35137 10.7575 -2.48715 6.82129 10.7575 -2.48711 6.82132 -9.47391 15.9546 -17.2016 23.6189 -6.97482 34.3672 -21.517 -1.82761 28.4555 -169.614 -26.9683 -119.193 -22.7044 55.3835 -83.9908 -14.3052 4.95138 -8.03132 -2.79168e-006 -2.47774e-006 1.64259e-006 -1.71166e-006 -2.04237e-006 1.79853e-006 -1.71166e-006 -2.04237e-006 1.79853e-006 -2.79168e-006 -2.47774e-006 1.64259e-006 -0.0146377 -9.27155e-005 1.89541e-006 -1.08158e-006 -4.35364e-007 -1.56e-007 -2.79168e-006 -2.47774e-006 1.64259e-006 -0.0187658 -0.00117695 6.40573e-005 -1.71145e-006 -2.04265e-006 1.79821e-006 -2.79168e-006 -2.47774e-006 1.64259e-006 -0.0122058 -0.00323111 0.000673735 -1.7115e-006 -2.04252e-006 1.79836e-006 -2.79168e-006 -2.47774e-006 1.64259e-006 -1.71166e-006 -2.04237e-006 1.79853e-006 -1.71166e-006 -2.04237e-006 1.79853e-006 -3.50277 1.39935 30.3988 -0.732013 7.27219 19.9005 36.5342 -23.8558 113.729 1.24795 -3.1938e-006 -6.51958e-008 -5.83004e-007 -7.08146e-007 5.45187e-007 -2.33202e-007 -2.83258e-007 2.18075e-007 -5.83004e-007 -7.08146e-007 5.45187e-007 -5.83004e-007 -7.08146e-007 5.45187e-007 0.0150067 -8.8543e-005 5.66914e-006 -5.83006e-007 -7.08074e-007 5.4528e-007 -5.83004e-007 -7.08146e-007 5.45187e-007 0.0190072 -0.00119371 -6.11955e-005 -5.83001e-007 -7.08055e-007 5.4531e-007 -5.83004e-007 -7.08146e-007 5.45187e-007 0.0122664 -0.0032513 -0.000681203 -5.82987e-007 -7.0809e-007 5.45279e-007 -5.83004e-007 -7.08146e-007 5.45187e-007 -2.33202e-007 -2.83258e-007 2.18075e-007 -5.83004e-007 -7.08146e-007 5.45187e-007 -54.7249 -13.1558 -70.0656 124.458 49.351 -86.1735 20.0676 65.0036 -27.1272 -3.94608e-006 -5.03474e-006 -4.12501e-006 -4.95006 -19.8025 -2.06906 -6.07568 18.3524 9.0734 82.8359 22.3195 -94.4979 2.5757e-006 2.16849e-006 -1.07549e-007 
